<mxfile host="app.diagrams.net" modified="2023-08-28T13:28:00.654Z" agent="Mozilla/5.0 (Windows NT 10.0; Win64; x64) AppleWebKit/537.36 (KHTML, like Gecko) Chrome/116.0.0.0 Safari/537.36" etag="yVR25FoBBG6-a_r8St9O" version="21.6.9" type="device">
  <diagram name="PÃ¡gina-1" id="A6Nziyx6I6ZekGtQeBus">
    <mxGraphModel dx="1100" dy="1767" grid="1" gridSize="10" guides="1" tooltips="1" connect="1" arrows="1" fold="1" page="1" pageScale="1" pageWidth="827" pageHeight="1169" math="0" shadow="0">
      <root>
        <mxCell id="0" />
        <mxCell id="1" parent="0" />
        <mxCell id="XNwFwsFVzcUq8IYY0MSn-47" style="edgeStyle=orthogonalEdgeStyle;rounded=0;orthogonalLoop=1;jettySize=auto;html=1;entryX=0.566;entryY=1;entryDx=0;entryDy=0;endArrow=diamondThin;endFill=1;entryPerimeter=0;" parent="1" source="XNwFwsFVzcUq8IYY0MSn-13" edge="1">
          <mxGeometry relative="1" as="geometry">
            <mxPoint x="530.56" y="-44" as="targetPoint" />
          </mxGeometry>
        </mxCell>
        <mxCell id="XNwFwsFVzcUq8IYY0MSn-13" value="Curso" style="swimlane;fontStyle=1;align=center;verticalAlign=top;childLayout=stackLayout;horizontal=1;startSize=26;horizontalStack=0;resizeParent=1;resizeParentMax=0;resizeLast=0;collapsible=1;marginBottom=0;whiteSpace=wrap;html=1;swimlaneFillColor=default;" parent="1" vertex="1">
          <mxGeometry x="414" y="191" width="180" height="110" as="geometry" />
        </mxCell>
        <mxCell id="XNwFwsFVzcUq8IYY0MSn-14" value="- nome: String&lt;br&gt;- creditos: Int&lt;br&gt;- disciplinas: List&amp;lt;Disciplina&amp;gt;" style="text;strokeColor=none;fillColor=none;align=left;verticalAlign=top;spacingLeft=4;spacingRight=4;overflow=hidden;rotatable=0;points=[[0,0.5],[1,0.5]];portConstraint=eastwest;whiteSpace=wrap;html=1;swimlaneFillColor=default;" parent="XNwFwsFVzcUq8IYY0MSn-13" vertex="1">
          <mxGeometry y="26" width="180" height="74" as="geometry" />
        </mxCell>
        <mxCell id="XNwFwsFVzcUq8IYY0MSn-15" value="" style="line;strokeWidth=1;fillColor=none;align=left;verticalAlign=middle;spacingTop=-1;spacingLeft=3;spacingRight=3;rotatable=0;labelPosition=right;points=[];portConstraint=eastwest;strokeColor=inherit;swimlaneFillColor=default;" parent="XNwFwsFVzcUq8IYY0MSn-13" vertex="1">
          <mxGeometry y="100" width="180" height="10" as="geometry" />
        </mxCell>
        <mxCell id="XNwFwsFVzcUq8IYY0MSn-39" value="Disciplina" style="swimlane;fontStyle=1;align=center;verticalAlign=top;childLayout=stackLayout;horizontal=1;startSize=26;horizontalStack=0;resizeParent=1;resizeParentMax=0;resizeLast=0;collapsible=1;marginBottom=0;whiteSpace=wrap;html=1;" parent="1" vertex="1">
          <mxGeometry x="715" y="168" width="230" height="240" as="geometry" />
        </mxCell>
        <mxCell id="XNwFwsFVzcUq8IYY0MSn-40" value="- nome : String&lt;br style=&quot;border-color: var(--border-color);&quot;&gt;- eObrigatoria: Boolean&lt;br&gt;- maxAlunos: int&lt;br&gt;- professor : Professor&lt;br&gt;- disciplina : Disciplina&lt;br&gt;- alunos : List&amp;lt;Alunos&amp;gt;&lt;br&gt;- status: Status" style="text;strokeColor=none;fillColor=none;align=left;verticalAlign=top;spacingLeft=4;spacingRight=4;overflow=hidden;rotatable=0;points=[[0,0.5],[1,0.5]];portConstraint=eastwest;whiteSpace=wrap;html=1;" parent="XNwFwsFVzcUq8IYY0MSn-39" vertex="1">
          <mxGeometry y="26" width="230" height="124" as="geometry" />
        </mxCell>
        <mxCell id="XNwFwsFVzcUq8IYY0MSn-41" value="" style="line;strokeWidth=1;fillColor=none;align=left;verticalAlign=middle;spacingTop=-1;spacingLeft=3;spacingRight=3;rotatable=0;labelPosition=right;points=[];portConstraint=eastwest;strokeColor=inherit;" parent="XNwFwsFVzcUq8IYY0MSn-39" vertex="1">
          <mxGeometry y="150" width="230" height="8" as="geometry" />
        </mxCell>
        <mxCell id="XNwFwsFVzcUq8IYY0MSn-42" value="+ adicionarProf(Professor p) : boolean&lt;br&gt;+ adicionarAluno(Aluno a): boolean&lt;br&gt;+ verificaPeriodoMat(): Boolean" style="text;strokeColor=none;fillColor=none;align=left;verticalAlign=top;spacingLeft=4;spacingRight=4;overflow=hidden;rotatable=0;points=[[0,0.5],[1,0.5]];portConstraint=eastwest;whiteSpace=wrap;html=1;" parent="XNwFwsFVzcUq8IYY0MSn-39" vertex="1">
          <mxGeometry y="158" width="230" height="82" as="geometry" />
        </mxCell>
        <mxCell id="XNwFwsFVzcUq8IYY0MSn-43" value="Universidade" style="swimlane;fontStyle=1;align=center;verticalAlign=top;childLayout=stackLayout;horizontal=1;startSize=26;horizontalStack=0;resizeParent=1;resizeParentMax=0;resizeLast=0;collapsible=1;marginBottom=0;whiteSpace=wrap;html=1;" parent="1" vertex="1">
          <mxGeometry x="450" y="-102" width="160" height="60" as="geometry" />
        </mxCell>
        <mxCell id="XNwFwsFVzcUq8IYY0MSn-44" value="- nome: String" style="text;strokeColor=none;fillColor=none;align=left;verticalAlign=top;spacingLeft=4;spacingRight=4;overflow=hidden;rotatable=0;points=[[0,0.5],[1,0.5]];portConstraint=eastwest;whiteSpace=wrap;html=1;" parent="XNwFwsFVzcUq8IYY0MSn-43" vertex="1">
          <mxGeometry y="26" width="160" height="26" as="geometry" />
        </mxCell>
        <mxCell id="XNwFwsFVzcUq8IYY0MSn-45" value="" style="line;strokeWidth=1;fillColor=none;align=left;verticalAlign=middle;spacingTop=-1;spacingLeft=3;spacingRight=3;rotatable=0;labelPosition=right;points=[];portConstraint=eastwest;strokeColor=inherit;" parent="XNwFwsFVzcUq8IYY0MSn-43" vertex="1">
          <mxGeometry y="52" width="160" height="8" as="geometry" />
        </mxCell>
        <mxCell id="XNwFwsFVzcUq8IYY0MSn-49" value="n" style="text;html=1;align=center;verticalAlign=middle;resizable=0;points=[];autosize=1;strokeColor=none;fillColor=none;" parent="1" vertex="1">
          <mxGeometry x="472" y="161" width="30" height="30" as="geometry" />
        </mxCell>
        <mxCell id="XNwFwsFVzcUq8IYY0MSn-66" style="edgeStyle=orthogonalEdgeStyle;rounded=0;orthogonalLoop=1;jettySize=auto;html=1;endArrow=block;endFill=0;exitX=0.5;exitY=0;exitDx=0;exitDy=0;" parent="1" source="XNwFwsFVzcUq8IYY0MSn-67" target="XNwFwsFVzcUq8IYY0MSn-74" edge="1">
          <mxGeometry relative="1" as="geometry">
            <Array as="points">
              <mxPoint x="1805" y="170" />
              <mxPoint x="1469" y="170" />
            </Array>
          </mxGeometry>
        </mxCell>
        <mxCell id="XNwFwsFVzcUq8IYY0MSn-67" value="Secratario" style="swimlane;fontStyle=1;align=center;verticalAlign=top;childLayout=stackLayout;horizontal=1;startSize=26;horizontalStack=0;resizeParent=1;resizeParentMax=0;resizeLast=0;collapsible=1;marginBottom=0;whiteSpace=wrap;html=1;" parent="1" vertex="1">
          <mxGeometry x="1705" y="262" width="350" height="140" as="geometry" />
        </mxCell>
        <mxCell id="XNwFwsFVzcUq8IYY0MSn-69" value="" style="line;strokeWidth=1;fillColor=none;align=left;verticalAlign=middle;spacingTop=-1;spacingLeft=3;spacingRight=3;rotatable=0;labelPosition=right;points=[];portConstraint=eastwest;strokeColor=inherit;" parent="XNwFwsFVzcUq8IYY0MSn-67" vertex="1">
          <mxGeometry y="26" width="350" height="8" as="geometry" />
        </mxCell>
        <mxCell id="XNwFwsFVzcUq8IYY0MSn-70" value="+ GerarCurriculo(): void&lt;br&gt;+ CadastrarDisciplinas(): void&lt;br&gt;+ GerenciarAluno() : void&lt;br&gt;+ Gerenciar Professor() : void&lt;br&gt;+ encerrarPeriodoDeMat(Disciplina: disciplina): void&lt;br&gt;+ verificaContinuidadeDisciplina(Disciplina: disciplina) : boolean" style="text;strokeColor=none;fillColor=none;align=left;verticalAlign=top;spacingLeft=4;spacingRight=4;overflow=hidden;rotatable=0;points=[[0,0.5],[1,0.5]];portConstraint=eastwest;whiteSpace=wrap;html=1;" parent="XNwFwsFVzcUq8IYY0MSn-67" vertex="1">
          <mxGeometry y="34" width="350" height="106" as="geometry" />
        </mxCell>
        <mxCell id="XNwFwsFVzcUq8IYY0MSn-71" value="Pessoa &amp;lt;&amp;lt;abstract&amp;gt;&amp;gt;" style="swimlane;fontStyle=1;align=center;verticalAlign=top;childLayout=stackLayout;horizontal=1;startSize=26;horizontalStack=0;resizeParent=1;resizeParentMax=0;resizeLast=0;collapsible=1;marginBottom=0;whiteSpace=wrap;html=1;" parent="1" vertex="1">
          <mxGeometry x="1319" y="-20" width="200" height="134" as="geometry" />
        </mxCell>
        <mxCell id="XNwFwsFVzcUq8IYY0MSn-72" value="- nome: String&lt;br&gt;- dataNascimento : Date&lt;br&gt;- cpf : String&lt;br&gt;- telefone: String" style="text;strokeColor=none;fillColor=none;align=left;verticalAlign=top;spacingLeft=4;spacingRight=4;overflow=hidden;rotatable=0;points=[[0,0.5],[1,0.5]];portConstraint=eastwest;whiteSpace=wrap;html=1;" parent="XNwFwsFVzcUq8IYY0MSn-71" vertex="1">
          <mxGeometry y="26" width="200" height="74" as="geometry" />
        </mxCell>
        <mxCell id="XNwFwsFVzcUq8IYY0MSn-73" value="" style="line;strokeWidth=1;fillColor=none;align=left;verticalAlign=middle;spacingTop=-1;spacingLeft=3;spacingRight=3;rotatable=0;labelPosition=right;points=[];portConstraint=eastwest;strokeColor=inherit;" parent="XNwFwsFVzcUq8IYY0MSn-71" vertex="1">
          <mxGeometry y="100" width="200" height="8" as="geometry" />
        </mxCell>
        <mxCell id="XNwFwsFVzcUq8IYY0MSn-74" value="+ method(type): type" style="text;strokeColor=none;fillColor=none;align=left;verticalAlign=top;spacingLeft=4;spacingRight=4;overflow=hidden;rotatable=0;points=[[0,0.5],[1,0.5]];portConstraint=eastwest;whiteSpace=wrap;html=1;" parent="XNwFwsFVzcUq8IYY0MSn-71" vertex="1">
          <mxGeometry y="108" width="200" height="26" as="geometry" />
        </mxCell>
        <mxCell id="XNwFwsFVzcUq8IYY0MSn-77" value="n" style="text;html=1;align=center;verticalAlign=middle;resizable=0;points=[];autosize=1;strokeColor=none;fillColor=none;" parent="1" vertex="1">
          <mxGeometry x="945" y="210" width="30" height="30" as="geometry" />
        </mxCell>
        <mxCell id="XNwFwsFVzcUq8IYY0MSn-78" value="n" style="text;html=1;align=center;verticalAlign=middle;resizable=0;points=[];autosize=1;strokeColor=none;fillColor=none;" parent="1" vertex="1">
          <mxGeometry x="1055" y="290" width="30" height="30" as="geometry" />
        </mxCell>
        <mxCell id="XNwFwsFVzcUq8IYY0MSn-81" value="n" style="text;html=1;align=center;verticalAlign=middle;resizable=0;points=[];autosize=1;strokeColor=none;fillColor=none;" parent="1" vertex="1">
          <mxGeometry x="890" y="408" width="30" height="30" as="geometry" />
        </mxCell>
        <mxCell id="XNwFwsFVzcUq8IYY0MSn-83" value="1" style="text;html=1;align=center;verticalAlign=middle;resizable=0;points=[];autosize=1;strokeColor=none;fillColor=none;" parent="1" vertex="1">
          <mxGeometry x="535" y="-42" width="30" height="30" as="geometry" />
        </mxCell>
        <mxCell id="xEQoK2qNsYIxzToRfZGO-2" value="-&amp;nbsp;" style="text;html=1;align=center;verticalAlign=middle;resizable=0;points=[];autosize=1;strokeColor=none;fillColor=none;" vertex="1" parent="1">
          <mxGeometry x="1340" y="298" width="30" height="30" as="geometry" />
        </mxCell>
        <mxCell id="xEQoK2qNsYIxzToRfZGO-8" style="edgeStyle=orthogonalEdgeStyle;rounded=0;orthogonalLoop=1;jettySize=auto;html=1;entryX=0.424;entryY=0.972;entryDx=0;entryDy=0;entryPerimeter=0;endArrow=block;endFill=0;" edge="1" parent="1" source="xEQoK2qNsYIxzToRfZGO-3" target="XNwFwsFVzcUq8IYY0MSn-74">
          <mxGeometry relative="1" as="geometry" />
        </mxCell>
        <mxCell id="xEQoK2qNsYIxzToRfZGO-20" style="edgeStyle=orthogonalEdgeStyle;rounded=0;orthogonalLoop=1;jettySize=auto;html=1;endArrow=none;endFill=0;" edge="1" parent="1" source="xEQoK2qNsYIxzToRfZGO-3" target="XNwFwsFVzcUq8IYY0MSn-42">
          <mxGeometry relative="1" as="geometry">
            <Array as="points">
              <mxPoint x="1545" y="480" />
              <mxPoint x="880" y="480" />
              <mxPoint x="880" y="409" />
              <mxPoint x="830" y="409" />
            </Array>
          </mxGeometry>
        </mxCell>
        <mxCell id="xEQoK2qNsYIxzToRfZGO-3" value="Professor" style="swimlane;fontStyle=1;align=center;verticalAlign=top;childLayout=stackLayout;horizontal=1;startSize=26;horizontalStack=0;resizeParent=1;resizeParentMax=0;resizeLast=0;collapsible=1;marginBottom=0;whiteSpace=wrap;html=1;" vertex="1" parent="1">
          <mxGeometry x="1405" y="272" width="280" height="94" as="geometry" />
        </mxCell>
        <mxCell id="xEQoK2qNsYIxzToRfZGO-4" value="- disciplinas: List&amp;lt;Disciplina&amp;gt;" style="text;strokeColor=none;fillColor=none;align=left;verticalAlign=top;spacingLeft=4;spacingRight=4;overflow=hidden;rotatable=0;points=[[0,0.5],[1,0.5]];portConstraint=eastwest;whiteSpace=wrap;html=1;" vertex="1" parent="xEQoK2qNsYIxzToRfZGO-3">
          <mxGeometry y="26" width="280" height="34" as="geometry" />
        </mxCell>
        <mxCell id="xEQoK2qNsYIxzToRfZGO-5" value="" style="line;strokeWidth=1;fillColor=none;align=left;verticalAlign=middle;spacingTop=-1;spacingLeft=3;spacingRight=3;rotatable=0;labelPosition=right;points=[];portConstraint=eastwest;strokeColor=inherit;" vertex="1" parent="xEQoK2qNsYIxzToRfZGO-3">
          <mxGeometry y="60" width="280" height="8" as="geometry" />
        </mxCell>
        <mxCell id="xEQoK2qNsYIxzToRfZGO-6" value="+ VerificarMatriculados(List&amp;lt;alunos&amp;gt; a): void" style="text;strokeColor=none;fillColor=none;align=left;verticalAlign=top;spacingLeft=4;spacingRight=4;overflow=hidden;rotatable=0;points=[[0,0.5],[1,0.5]];portConstraint=eastwest;whiteSpace=wrap;html=1;" vertex="1" parent="xEQoK2qNsYIxzToRfZGO-3">
          <mxGeometry y="68" width="280" height="26" as="geometry" />
        </mxCell>
        <mxCell id="xEQoK2qNsYIxzToRfZGO-16" style="edgeStyle=orthogonalEdgeStyle;rounded=0;orthogonalLoop=1;jettySize=auto;html=1;entryX=0.217;entryY=0.962;entryDx=0;entryDy=0;entryPerimeter=0;endArrow=block;endFill=0;" edge="1" parent="1" source="xEQoK2qNsYIxzToRfZGO-12" target="XNwFwsFVzcUq8IYY0MSn-74">
          <mxGeometry relative="1" as="geometry" />
        </mxCell>
        <mxCell id="xEQoK2qNsYIxzToRfZGO-12" value="Aluno" style="swimlane;fontStyle=1;align=center;verticalAlign=top;childLayout=stackLayout;horizontal=1;startSize=26;horizontalStack=0;resizeParent=1;resizeParentMax=0;resizeLast=0;collapsible=1;marginBottom=0;whiteSpace=wrap;html=1;" vertex="1" parent="1">
          <mxGeometry x="1085" y="244" width="280" height="130" as="geometry" />
        </mxCell>
        <mxCell id="xEQoK2qNsYIxzToRfZGO-13" value="- turmas: List&amp;lt;Disciplina&amp;gt;" style="text;strokeColor=none;fillColor=none;align=left;verticalAlign=top;spacingLeft=4;spacingRight=4;overflow=hidden;rotatable=0;points=[[0,0.5],[1,0.5]];portConstraint=eastwest;whiteSpace=wrap;html=1;" vertex="1" parent="xEQoK2qNsYIxzToRfZGO-12">
          <mxGeometry y="26" width="280" height="34" as="geometry" />
        </mxCell>
        <mxCell id="xEQoK2qNsYIxzToRfZGO-14" value="" style="line;strokeWidth=1;fillColor=none;align=left;verticalAlign=middle;spacingTop=-1;spacingLeft=3;spacingRight=3;rotatable=0;labelPosition=right;points=[];portConstraint=eastwest;strokeColor=inherit;" vertex="1" parent="xEQoK2qNsYIxzToRfZGO-12">
          <mxGeometry y="60" width="280" height="8" as="geometry" />
        </mxCell>
        <mxCell id="xEQoK2qNsYIxzToRfZGO-15" value="+ matricular(Disciplina discplina): Boolean&lt;br&gt;+ cancelarMatricula(Disciplina disciplina): Boolean" style="text;strokeColor=none;fillColor=none;align=left;verticalAlign=top;spacingLeft=4;spacingRight=4;overflow=hidden;rotatable=0;points=[[0,0.5],[1,0.5]];portConstraint=eastwest;whiteSpace=wrap;html=1;" vertex="1" parent="xEQoK2qNsYIxzToRfZGO-12">
          <mxGeometry y="68" width="280" height="62" as="geometry" />
        </mxCell>
        <mxCell id="xEQoK2qNsYIxzToRfZGO-17" style="edgeStyle=orthogonalEdgeStyle;rounded=0;orthogonalLoop=1;jettySize=auto;html=1;entryX=0;entryY=0.5;entryDx=0;entryDy=0;endArrow=none;endFill=0;" edge="1" parent="1" source="XNwFwsFVzcUq8IYY0MSn-40" target="xEQoK2qNsYIxzToRfZGO-13">
          <mxGeometry relative="1" as="geometry" />
        </mxCell>
        <mxCell id="xEQoK2qNsYIxzToRfZGO-21" value="n" style="text;html=1;align=center;verticalAlign=middle;resizable=0;points=[];autosize=1;strokeColor=none;fillColor=none;" vertex="1" parent="1">
          <mxGeometry x="594" y="230" width="30" height="30" as="geometry" />
        </mxCell>
        <mxCell id="xEQoK2qNsYIxzToRfZGO-23" style="edgeStyle=orthogonalEdgeStyle;rounded=0;orthogonalLoop=1;jettySize=auto;html=1;endArrow=diamondThin;endFill=0;" edge="1" parent="1" source="XNwFwsFVzcUq8IYY0MSn-40" target="XNwFwsFVzcUq8IYY0MSn-14">
          <mxGeometry relative="1" as="geometry" />
        </mxCell>
        <mxCell id="xEQoK2qNsYIxzToRfZGO-25" value="n" style="text;html=1;align=center;verticalAlign=middle;resizable=0;points=[];autosize=1;strokeColor=none;fillColor=none;" vertex="1" parent="1">
          <mxGeometry x="690" y="228" width="30" height="30" as="geometry" />
        </mxCell>
        <mxCell id="xEQoK2qNsYIxzToRfZGO-31" style="edgeStyle=orthogonalEdgeStyle;rounded=0;orthogonalLoop=1;jettySize=auto;html=1;endArrow=none;endFill=0;" edge="1" parent="1" source="xEQoK2qNsYIxzToRfZGO-27" target="XNwFwsFVzcUq8IYY0MSn-39">
          <mxGeometry relative="1" as="geometry" />
        </mxCell>
        <mxCell id="xEQoK2qNsYIxzToRfZGO-27" value="Status&amp;lt;&amp;lt;enum&amp;gt;&amp;gt;" style="swimlane;fontStyle=1;align=center;verticalAlign=top;childLayout=stackLayout;horizontal=1;startSize=26;horizontalStack=0;resizeParent=1;resizeParentMax=0;resizeLast=0;collapsible=1;marginBottom=0;whiteSpace=wrap;html=1;" vertex="1" parent="1">
          <mxGeometry x="865" y="-20" width="190" height="98" as="geometry" />
        </mxCell>
        <mxCell id="xEQoK2qNsYIxzToRfZGO-28" value="- &amp;lt;&amp;lt;enum&amp;gt;&amp;gt; ESPERANDO:&amp;nbsp; int&lt;br&gt;- &amp;lt;&amp;lt;enum&amp;gt;&amp;gt; CANCELADO:&amp;nbsp; int&lt;br&gt;- &amp;lt;&amp;lt;enum&amp;gt;&amp;gt; ATIVO:&amp;nbsp; int&lt;br&gt;- &amp;lt;&amp;lt;enum&amp;gt;&amp;gt; FECHADO: int" style="text;strokeColor=none;fillColor=none;align=left;verticalAlign=top;spacingLeft=4;spacingRight=4;overflow=hidden;rotatable=0;points=[[0,0.5],[1,0.5]];portConstraint=eastwest;whiteSpace=wrap;html=1;" vertex="1" parent="xEQoK2qNsYIxzToRfZGO-27">
          <mxGeometry y="26" width="190" height="64" as="geometry" />
        </mxCell>
        <mxCell id="xEQoK2qNsYIxzToRfZGO-29" value="" style="line;strokeWidth=1;fillColor=none;align=left;verticalAlign=middle;spacingTop=-1;spacingLeft=3;spacingRight=3;rotatable=0;labelPosition=right;points=[];portConstraint=eastwest;strokeColor=inherit;" vertex="1" parent="xEQoK2qNsYIxzToRfZGO-27">
          <mxGeometry y="90" width="190" height="8" as="geometry" />
        </mxCell>
        <mxCell id="xEQoK2qNsYIxzToRfZGO-32" value="1" style="text;html=1;align=center;verticalAlign=middle;resizable=0;points=[];autosize=1;strokeColor=none;fillColor=none;" vertex="1" parent="1">
          <mxGeometry x="1515" y="378" width="30" height="30" as="geometry" />
        </mxCell>
      </root>
    </mxGraphModel>
  </diagram>
</mxfile>
